<mxfile host="app.diagrams.net" agent="Mozilla/5.0 (Windows NT 10.0; Win64; x64) AppleWebKit/537.36 (KHTML, like Gecko) Chrome/109.0.0.0 Safari/537.36" version="26.0.4">
  <diagram name="Страница — 1" id="GubsU6qLJn6lSEv1zQAk">
    <mxGraphModel grid="1" page="1" gridSize="10" guides="1" tooltips="1" connect="1" arrows="1" fold="1" pageScale="1" pageWidth="827" pageHeight="1169" math="0" shadow="0">
      <root>
        <mxCell id="0" />
        <mxCell id="1" parent="0" />
        <mxCell id="sVLx8O-Ld-qcTRqpF2X1-1" value="" style="ellipse;whiteSpace=wrap;html=1;aspect=fixed;fillColor=#100f0f;" vertex="1" parent="1">
          <mxGeometry x="300" y="-1022" width="20" height="20" as="geometry" />
        </mxCell>
        <mxCell id="sVLx8O-Ld-qcTRqpF2X1-2" value="" style="endArrow=classic;html=1;rounded=0;exitX=0.5;exitY=1;exitDx=0;exitDy=0;entryX=0.5;entryY=0;entryDx=0;entryDy=0;" edge="1" parent="1" source="sVLx8O-Ld-qcTRqpF2X1-1">
          <mxGeometry width="50" height="50" relative="1" as="geometry">
            <mxPoint x="340" y="-660" as="sourcePoint" />
            <mxPoint x="310" y="-930" as="targetPoint" />
          </mxGeometry>
        </mxCell>
        <mxCell id="sVLx8O-Ld-qcTRqpF2X1-5" value="Главная страница Яндекс Маршруты" style="rounded=0;whiteSpace=wrap;html=1;" vertex="1" parent="1">
          <mxGeometry x="250" y="-930" width="120" height="84" as="geometry" />
        </mxCell>
        <mxCell id="sVLx8O-Ld-qcTRqpF2X1-6" value="&lt;font face=&quot;Helvetica&quot; style=&quot;font-size: 12px;&quot;&gt;Окно&amp;nbsp;&lt;span style=&quot;color: rgba(0, 0, 0, 0.85); text-align: start; white-space: pre-wrap; background-color: rgb(255, 255, 255);&quot;&gt;подтверждения отправки документов на проверку&lt;/span&gt;&lt;/font&gt;" style="rounded=0;whiteSpace=wrap;html=1;" vertex="1" parent="1">
          <mxGeometry x="-109" y="-285" width="133" height="60" as="geometry" />
        </mxCell>
        <mxCell id="sVLx8O-Ld-qcTRqpF2X1-11" style="edgeStyle=orthogonalEdgeStyle;rounded=0;orthogonalLoop=1;jettySize=auto;html=1;exitX=0;exitY=0.5;exitDx=0;exitDy=0;" edge="1" parent="1">
          <mxGeometry relative="1" as="geometry">
            <mxPoint x="249" y="-896" as="sourcePoint" />
            <mxPoint x="249" y="-613" as="targetPoint" />
            <Array as="points">
              <mxPoint x="179" y="-896" />
              <mxPoint x="179" y="-613" />
              <mxPoint x="249" y="-613" />
            </Array>
          </mxGeometry>
        </mxCell>
        <mxCell id="sVLx8O-Ld-qcTRqpF2X1-15" style="edgeStyle=orthogonalEdgeStyle;rounded=0;orthogonalLoop=1;jettySize=auto;html=1;" edge="1" parent="1">
          <mxGeometry relative="1" as="geometry">
            <mxPoint x="570" y="-277" as="sourcePoint" />
            <mxPoint x="390" y="-590" as="targetPoint" />
            <Array as="points">
              <mxPoint x="799" y="-277" />
              <mxPoint x="799" y="-590" />
            </Array>
          </mxGeometry>
        </mxCell>
        <mxCell id="sVLx8O-Ld-qcTRqpF2X1-17" style="edgeStyle=orthogonalEdgeStyle;rounded=0;orthogonalLoop=1;jettySize=auto;html=1;entryX=0;entryY=0.75;entryDx=0;entryDy=0;" edge="1" parent="1">
          <mxGeometry relative="1" as="geometry">
            <mxPoint x="61" y="-404" as="sourcePoint" />
            <mxPoint x="-109" y="-277" as="targetPoint" />
            <Array as="points">
              <mxPoint x="-129" y="-404" />
              <mxPoint x="-129" y="-277" />
            </Array>
          </mxGeometry>
        </mxCell>
        <mxCell id="sVLx8O-Ld-qcTRqpF2X1-19" style="edgeStyle=orthogonalEdgeStyle;rounded=0;orthogonalLoop=1;jettySize=auto;html=1;" edge="1" parent="1">
          <mxGeometry relative="1" as="geometry">
            <mxPoint x="-109" y="-266" as="sourcePoint" />
            <mxPoint x="250" y="-536" as="targetPoint" />
            <Array as="points">
              <mxPoint x="-169" y="-266" />
              <mxPoint x="-169" y="-535" />
            </Array>
          </mxGeometry>
        </mxCell>
        <mxCell id="sVLx8O-Ld-qcTRqpF2X1-20" value="" style="endArrow=classic;html=1;rounded=0;exitX=0.5;exitY=1;exitDx=0;exitDy=0;entryX=0.5;entryY=0;entryDx=0;entryDy=0;" edge="1" parent="1" source="sVLx8O-Ld-qcTRqpF2X1-22">
          <mxGeometry width="50" height="50" relative="1" as="geometry">
            <mxPoint x="-312.5" y="-548" as="sourcePoint" />
            <mxPoint x="-312.5" y="-476" as="targetPoint" />
          </mxGeometry>
        </mxCell>
        <mxCell id="sVLx8O-Ld-qcTRqpF2X1-21" value="" style="endArrow=classic;html=1;rounded=0;exitX=0.5;exitY=1;exitDx=0;exitDy=0;entryX=0.5;entryY=0;entryDx=0;entryDy=0;" edge="1" parent="1" target="sVLx8O-Ld-qcTRqpF2X1-22">
          <mxGeometry width="50" height="50" relative="1" as="geometry">
            <mxPoint x="-312.5" y="-548" as="sourcePoint" />
            <mxPoint x="-312.5" y="-476" as="targetPoint" />
          </mxGeometry>
        </mxCell>
        <mxCell id="sVLx8O-Ld-qcTRqpF2X1-22" value="" style="ellipse;whiteSpace=wrap;html=1;aspect=fixed;fillColor=#fbf9f9;" vertex="1" parent="1">
          <mxGeometry x="-322" y="-477" width="20" height="20" as="geometry" />
        </mxCell>
        <mxCell id="sVLx8O-Ld-qcTRqpF2X1-39" style="edgeStyle=orthogonalEdgeStyle;rounded=0;orthogonalLoop=1;jettySize=auto;html=1;exitX=0;exitY=0.5;exitDx=0;exitDy=0;targetPerimeterSpacing=0;" edge="1" parent="1">
          <mxGeometry relative="1" as="geometry">
            <mxPoint x="383" y="-612.5" as="sourcePoint" />
            <mxPoint x="371" y="-903" as="targetPoint" />
            <Array as="points">
              <mxPoint x="464" y="-612" />
              <mxPoint x="464" y="-903" />
              <mxPoint x="383" y="-903" />
            </Array>
          </mxGeometry>
        </mxCell>
        <mxCell id="sVLx8O-Ld-qcTRqpF2X1-46" value="Окно выбора способа оплаты" style="rounded=0;whiteSpace=wrap;html=1;" vertex="1" parent="1">
          <mxGeometry x="438" y="-447" width="133" height="77" as="geometry" />
        </mxCell>
        <mxCell id="sVLx8O-Ld-qcTRqpF2X1-47" style="edgeStyle=orthogonalEdgeStyle;rounded=0;orthogonalLoop=1;jettySize=auto;html=1;entryX=0;entryY=0.75;entryDx=0;entryDy=0;" edge="1" parent="1">
          <mxGeometry relative="1" as="geometry">
            <mxPoint x="250" y="-543" as="sourcePoint" />
            <mxPoint x="60" y="-416" as="targetPoint" />
            <Array as="points">
              <mxPoint x="19" y="-543" />
              <mxPoint x="19" y="-416" />
            </Array>
          </mxGeometry>
        </mxCell>
        <mxCell id="sVLx8O-Ld-qcTRqpF2X1-48" style="edgeStyle=orthogonalEdgeStyle;rounded=0;orthogonalLoop=1;jettySize=auto;html=1;entryX=0;entryY=0.75;entryDx=0;entryDy=0;" edge="1" parent="1">
          <mxGeometry relative="1" as="geometry">
            <mxPoint x="390" y="-538" as="sourcePoint" />
            <mxPoint x="575" y="-411" as="targetPoint" />
            <Array as="points">
              <mxPoint x="599" y="-538" />
              <mxPoint x="599" y="-411" />
            </Array>
          </mxGeometry>
        </mxCell>
        <mxCell id="sVLx8O-Ld-qcTRqpF2X1-51" style="edgeStyle=orthogonalEdgeStyle;rounded=0;orthogonalLoop=1;jettySize=auto;html=1;exitX=0;exitY=0.5;exitDx=0;exitDy=0;" edge="1" parent="1">
          <mxGeometry relative="1" as="geometry">
            <mxPoint x="571" y="-438" as="sourcePoint" />
            <mxPoint x="390" y="-565" as="targetPoint" />
            <Array as="points">
              <mxPoint x="579" y="-438" />
              <mxPoint x="579" y="-565" />
            </Array>
          </mxGeometry>
        </mxCell>
        <mxCell id="sVLx8O-Ld-qcTRqpF2X1-53" style="edgeStyle=orthogonalEdgeStyle;rounded=0;orthogonalLoop=1;jettySize=auto;html=1;exitX=0;exitY=0.5;exitDx=0;exitDy=0;" edge="1" parent="1">
          <mxGeometry relative="1" as="geometry">
            <mxPoint x="71" y="-430" as="sourcePoint" />
            <mxPoint x="250" y="-557" as="targetPoint" />
            <Array as="points">
              <mxPoint x="45" y="-430" />
              <mxPoint x="45" y="-557" />
            </Array>
          </mxGeometry>
        </mxCell>
        <mxCell id="sVLx8O-Ld-qcTRqpF2X1-56" style="edgeStyle=orthogonalEdgeStyle;rounded=0;orthogonalLoop=1;jettySize=auto;html=1;exitX=0;exitY=0.5;exitDx=0;exitDy=0;entryX=0;entryY=0.75;entryDx=0;entryDy=0;" edge="1" parent="1">
          <mxGeometry relative="1" as="geometry">
            <mxPoint x="439" y="-387" as="sourcePoint" />
            <mxPoint x="439" y="-260" as="targetPoint" />
            <Array as="points">
              <mxPoint x="404" y="-387" />
              <mxPoint x="404" y="-260" />
            </Array>
          </mxGeometry>
        </mxCell>
        <mxCell id="sVLx8O-Ld-qcTRqpF2X1-58" style="edgeStyle=orthogonalEdgeStyle;rounded=0;orthogonalLoop=1;jettySize=auto;html=1;exitX=0;exitY=0.5;exitDx=0;exitDy=0;entryX=0;entryY=0.75;entryDx=0;entryDy=0;" edge="1" parent="1">
          <mxGeometry relative="1" as="geometry">
            <mxPoint x="570" y="-266" as="sourcePoint" />
            <mxPoint x="570" y="-393" as="targetPoint" />
            <Array as="points">
              <mxPoint x="649" y="-266" />
              <mxPoint x="649" y="-393" />
            </Array>
          </mxGeometry>
        </mxCell>
        <mxCell id="sVLx8O-Ld-qcTRqpF2X1-62" value="" style="endArrow=classic;html=1;rounded=0;" edge="1" parent="1">
          <mxGeometry width="50" height="50" relative="1" as="geometry">
            <mxPoint x="507" y="-299" as="sourcePoint" />
            <mxPoint x="507" y="-371" as="targetPoint" />
          </mxGeometry>
        </mxCell>
        <mxCell id="sVLx8O-Ld-qcTRqpF2X1-55" value="Окно добавления карты" style="rounded=0;whiteSpace=wrap;html=1;" vertex="1" parent="1">
          <mxGeometry x="438" y="-303" width="133" height="83" as="geometry" />
        </mxCell>
        <mxCell id="sVLx8O-Ld-qcTRqpF2X1-45" value="Окно добавления прав" style="rounded=0;whiteSpace=wrap;html=1;" vertex="1" parent="1">
          <mxGeometry x="62" y="-447" width="138" height="77" as="geometry" />
        </mxCell>
        <mxCell id="sVLx8O-Ld-qcTRqpF2X1-66" value="Окно &quot;Машина забронирована&quot;" style="rounded=0;whiteSpace=wrap;html=1;" vertex="1" parent="1">
          <mxGeometry x="-378" y="-608" width="133" height="60" as="geometry" />
        </mxCell>
        <mxCell id="sVLx8O-Ld-qcTRqpF2X1-67" value="" style="endArrow=classic;html=1;rounded=0;entryX=1;entryY=0.5;entryDx=0;entryDy=0;exitX=0.008;exitY=0.392;exitDx=0;exitDy=0;exitPerimeter=0;" edge="1" parent="1">
          <mxGeometry width="50" height="50" relative="1" as="geometry">
            <mxPoint x="252.06399999999985" y="-565.9760000000001" as="sourcePoint" />
            <mxPoint x="-245" y="-565" as="targetPoint" />
          </mxGeometry>
        </mxCell>
        <mxCell id="sVLx8O-Ld-qcTRqpF2X1-68" value="&lt;font face=&quot;Helvetica&quot; style=&quot;font-size: 12px;&quot;&gt;Окно&amp;nbsp;&lt;span style=&quot;color: rgba(0, 0, 0, 0.85); text-align: start; white-space: pre-wrap; background-color: rgb(255, 255, 255);&quot;&gt;“Вы уверены, что хотите отменить поездку?”&lt;/span&gt;&lt;/font&gt;" style="rounded=0;whiteSpace=wrap;html=1;" vertex="1" parent="1">
          <mxGeometry x="-377" y="-733" width="133" height="60" as="geometry" />
        </mxCell>
        <mxCell id="sVLx8O-Ld-qcTRqpF2X1-69" style="edgeStyle=orthogonalEdgeStyle;rounded=0;orthogonalLoop=1;jettySize=auto;html=1;exitX=0;exitY=0.5;exitDx=0;exitDy=0;entryX=0;entryY=0.75;entryDx=0;entryDy=0;" edge="1" parent="1">
          <mxGeometry relative="1" as="geometry">
            <mxPoint x="-377" y="-585" as="sourcePoint" />
            <mxPoint x="-377" y="-712" as="targetPoint" />
            <Array as="points">
              <mxPoint x="-400" y="-585" />
              <mxPoint x="-400" y="-712" />
            </Array>
          </mxGeometry>
        </mxCell>
        <mxCell id="sVLx8O-Ld-qcTRqpF2X1-71" style="edgeStyle=orthogonalEdgeStyle;rounded=0;orthogonalLoop=1;jettySize=auto;html=1;exitX=0;exitY=0.5;exitDx=0;exitDy=0;entryX=0;entryY=0.75;entryDx=0;entryDy=0;" edge="1" parent="1">
          <mxGeometry relative="1" as="geometry">
            <mxPoint x="-245" y="-704" as="sourcePoint" />
            <mxPoint x="-245" y="-577" as="targetPoint" />
            <Array as="points">
              <mxPoint x="-222" y="-704" />
              <mxPoint x="-222" y="-577" />
            </Array>
          </mxGeometry>
        </mxCell>
        <mxCell id="sVLx8O-Ld-qcTRqpF2X1-74" value="" style="endArrow=classic;html=1;rounded=0;exitX=1;exitY=0.25;exitDx=0;exitDy=0;entryX=0;entryY=0.25;entryDx=0;entryDy=0;" edge="1" parent="1" source="sVLx8O-Ld-qcTRqpF2X1-68" target="sVLx8O-Ld-qcTRqpF2X1-73">
          <mxGeometry width="50" height="50" relative="1" as="geometry">
            <mxPoint x="-80" y="-540" as="sourcePoint" />
            <mxPoint x="-30" y="-590" as="targetPoint" />
          </mxGeometry>
        </mxCell>
        <mxCell id="sVLx8O-Ld-qcTRqpF2X1-77" style="edgeStyle=orthogonalEdgeStyle;rounded=0;orthogonalLoop=1;jettySize=auto;html=1;" edge="1" parent="1">
          <mxGeometry relative="1" as="geometry">
            <mxPoint x="-43" y="-691" as="sourcePoint" />
            <mxPoint x="250" y="-600" as="targetPoint" />
            <Array as="points">
              <mxPoint x="-43" y="-600" />
              <mxPoint x="27" y="-600" />
            </Array>
          </mxGeometry>
        </mxCell>
        <mxCell id="iyzvEa8N_OB9cEJZf_HY-1" value="&lt;span style=&quot;color: rgba(0, 0, 0, 0.85); font-family: &amp;quot;YS Text&amp;quot;, sans-serif; font-size: 10px; font-style: normal; font-variant-ligatures: normal; font-variant-caps: normal; font-weight: 400; letter-spacing: normal; orphans: 2; text-indent: 0px; text-transform: none; white-space: pre-line; widows: 2; word-spacing: 0px; -webkit-text-stroke-width: 0px; background-color: rgb(255, 255, 255); text-decoration-thickness: initial; text-decoration-style: initial; text-decoration-color: initial; float: none; display: inline !important;&quot;&gt;Нажать кнопку &quot;Отменить&quot;&lt;/span&gt;" style="text;whiteSpace=wrap;html=1;align=center;" vertex="1" parent="1">
          <mxGeometry x="-471" y="-654" width="132" height="40" as="geometry" />
        </mxCell>
        <mxCell id="iyzvEa8N_OB9cEJZf_HY-2" value="&lt;span style=&quot;color: rgba(0, 0, 0, 0.85); font-family: &amp;quot;YS Text&amp;quot;, sans-serif; font-size: 10px; font-style: normal; font-variant-ligatures: normal; font-variant-caps: normal; font-weight: 400; letter-spacing: normal; orphans: 2; text-indent: 0px; text-transform: none; white-space: pre-line; widows: 2; word-spacing: 0px; -webkit-text-stroke-width: 0px; background-color: rgb(255, 255, 255); text-decoration-thickness: initial; text-decoration-style: initial; text-decoration-color: initial; float: none; display: inline !important;&quot;&gt;Нажать кнопку &quot;Нет&quot;&lt;/span&gt;" style="text;whiteSpace=wrap;html=1;align=center;" vertex="1" parent="1">
          <mxGeometry x="-273" y="-653" width="98" height="40" as="geometry" />
        </mxCell>
        <mxCell id="iyzvEa8N_OB9cEJZf_HY-3" value="&lt;span style=&quot;color: rgba(0, 0, 0, 0.85); font-family: &amp;quot;YS Text&amp;quot;, sans-serif; font-size: 10px; font-style: normal; font-variant-ligatures: normal; font-variant-caps: normal; font-weight: 400; letter-spacing: normal; orphans: 2; text-indent: 0px; text-transform: none; white-space: pre-line; widows: 2; word-spacing: 0px; -webkit-text-stroke-width: 0px; background-color: rgb(255, 255, 255); text-decoration-thickness: initial; text-decoration-style: initial; text-decoration-color: initial; float: none; display: inline !important;&quot;&gt;Нажать кнопку &quot;Да&quot;&lt;/span&gt;" style="text;whiteSpace=wrap;html=1;align=center;" vertex="1" parent="1">
          <mxGeometry x="-237" y="-743" width="92" height="40" as="geometry" />
        </mxCell>
        <mxCell id="iyzvEa8N_OB9cEJZf_HY-4" value="&lt;span style=&quot;color: rgba(0, 0, 0, 0.85); font-family: &amp;quot;YS Text&amp;quot;, sans-serif; font-size: 10px; font-style: normal; font-variant-ligatures: normal; font-variant-caps: normal; font-weight: 400; letter-spacing: normal; orphans: 2; text-indent: 0px; text-transform: none; white-space: pre-line; widows: 2; word-spacing: 0px; -webkit-text-stroke-width: 0px; background-color: rgb(255, 255, 255); text-decoration-thickness: initial; text-decoration-style: initial; text-decoration-color: initial; float: none; display: inline !important;&quot;&gt;Нажать кнопку &quot;Принято&quot;&lt;/span&gt;" style="text;whiteSpace=wrap;html=1;align=center;" vertex="1" parent="1">
          <mxGeometry x="-106" y="-646" width="140" height="40" as="geometry" />
        </mxCell>
        <mxCell id="iyzvEa8N_OB9cEJZf_HY-5" value="&lt;span style=&quot;color: rgba(0, 0, 0, 0.85); font-family: &amp;quot;YS Text&amp;quot;, sans-serif; font-size: 10px; font-style: normal; font-variant-ligatures: normal; font-variant-caps: normal; font-weight: 400; letter-spacing: normal; orphans: 2; text-align: left; text-indent: 0px; text-transform: none; white-space: pre-line; widows: 2; word-spacing: 0px; -webkit-text-stroke-width: 0px; background-color: rgb(255, 255, 255); text-decoration-thickness: initial; text-decoration-style: initial; text-decoration-color: initial; display: inline !important; float: none;&quot;&gt;Нажать на &quot;Стрелку влево&quot;&lt;/span&gt;" style="text;whiteSpace=wrap;html=1;" vertex="1" parent="1">
          <mxGeometry x="410" y="-730" width="150" height="40" as="geometry" />
        </mxCell>
        <mxCell id="iyzvEa8N_OB9cEJZf_HY-6" value="&lt;span style=&quot;color: rgba(0, 0, 0, 0.85); font-family: &amp;quot;YS Text&amp;quot;, sans-serif; font-size: 10px; font-style: normal; font-variant-ligatures: normal; font-variant-caps: normal; font-weight: 400; letter-spacing: normal; orphans: 2; text-indent: 0px; text-transform: none; white-space: pre-line; widows: 2; word-spacing: 0px; -webkit-text-stroke-width: 0px; background-color: rgb(255, 255, 255); text-decoration-thickness: initial; text-decoration-style: initial; text-decoration-color: initial; float: none; display: inline !important;&quot;&gt;Внесены все данные и нажата кнопка &quot;Добавить&quot;&lt;/span&gt;" style="text;whiteSpace=wrap;html=1;align=center;" vertex="1" parent="1">
          <mxGeometry x="-162" y="-344" width="140" height="40" as="geometry" />
        </mxCell>
        <mxCell id="iyzvEa8N_OB9cEJZf_HY-7" value="&lt;span style=&quot;forced-color-adjust: none; font-style: normal; font-variant-ligatures: normal; font-variant-caps: normal; font-weight: 400; letter-spacing: normal; orphans: 2; text-indent: 0px; text-transform: none; widows: 2; word-spacing: 0px; -webkit-text-stroke-width: 0px; text-decoration-thickness: initial; text-decoration-style: initial; text-decoration-color: initial; color: rgba(0, 0, 0, 0.85); font-family: &amp;quot;YS Text&amp;quot;, sans-serif; font-size: 10px; white-space: pre-line; background-color: rgb(255, 255, 255); float: none; display: inline !important;&quot;&gt;Нажать кнопку «Принято»&lt;/span&gt;" style="text;whiteSpace=wrap;html=1;align=center;" vertex="1" parent="1">
          <mxGeometry x="-220" y="-410" width="80" height="50" as="geometry" />
        </mxCell>
        <mxCell id="iyzvEa8N_OB9cEJZf_HY-8" value="&lt;span style=&quot;color: rgba(0, 0, 0, 0.85); font-family: &amp;quot;YS Text&amp;quot;, sans-serif; font-size: 10px; font-style: normal; font-variant-ligatures: normal; font-variant-caps: normal; font-weight: 400; letter-spacing: normal; orphans: 2; text-indent: 0px; text-transform: none; white-space: pre-line; widows: 2; word-spacing: 0px; -webkit-text-stroke-width: 0px; background-color: rgb(255, 255, 255); text-decoration-thickness: initial; text-decoration-style: initial; text-decoration-color: initial; float: none; display: inline !important;&quot;&gt;Кликнуть на поле &quot;Добавить права&quot;&lt;/span&gt;" style="text;whiteSpace=wrap;html=1;align=center;" vertex="1" parent="1">
          <mxGeometry x="-49" y="-496" width="85" height="40" as="geometry" />
        </mxCell>
        <mxCell id="iyzvEa8N_OB9cEJZf_HY-9" value="&lt;span style=&quot;color: rgba(0, 0, 0, 0.85); font-family: &amp;quot;YS Text&amp;quot;, sans-serif; font-size: 10px; font-style: normal; font-variant-ligatures: normal; font-variant-caps: normal; font-weight: 400; letter-spacing: normal; orphans: 2; text-indent: 0px; text-transform: none; white-space: pre-line; widows: 2; word-spacing: 0px; -webkit-text-stroke-width: 0px; background-color: rgb(255, 255, 255); text-decoration-thickness: initial; text-decoration-style: initial; text-decoration-color: initial; float: none; display: inline !important;&quot;&gt;Нажать на &quot;Крестик&quot;&lt;/span&gt;" style="text;whiteSpace=wrap;html=1;align=center;" vertex="1" parent="1">
          <mxGeometry x="30" y="-524" width="90" height="40" as="geometry" />
        </mxCell>
        <mxCell id="iyzvEa8N_OB9cEJZf_HY-10" value="&lt;span style=&quot;color: rgba(0, 0, 0, 0.85); font-family: &amp;quot;YS Text&amp;quot;, sans-serif; font-size: 10px; font-style: normal; font-variant-ligatures: normal; font-variant-caps: normal; font-weight: 400; letter-spacing: normal; orphans: 2; text-indent: 0px; text-transform: none; white-space: pre-line; widows: 2; word-spacing: 0px; -webkit-text-stroke-width: 0px; background-color: rgb(255, 255, 255); text-decoration-thickness: initial; text-decoration-style: initial; text-decoration-color: initial; float: none; display: inline !important;&quot;&gt;Нажать на &quot;Крестик&quot;&lt;/span&gt;" style="text;whiteSpace=wrap;html=1;align=center;" vertex="1" parent="1">
          <mxGeometry x="775" y="-423" width="60" height="40" as="geometry" />
        </mxCell>
        <mxCell id="iyzvEa8N_OB9cEJZf_HY-11" value="&lt;span style=&quot;color: rgba(0, 0, 0, 0.85); font-family: &amp;quot;YS Text&amp;quot;, sans-serif; font-size: 10px; font-style: normal; font-variant-ligatures: normal; font-variant-caps: normal; font-weight: 400; letter-spacing: normal; orphans: 2; text-indent: 0px; text-transform: none; white-space: pre-line; widows: 2; word-spacing: 0px; -webkit-text-stroke-width: 0px; background-color: rgb(255, 255, 255); text-decoration-thickness: initial; text-decoration-style: initial; text-decoration-color: initial; float: none; display: inline !important;&quot;&gt;Кликнуть &quot;Отмена&quot;&lt;/span&gt;" style="text;whiteSpace=wrap;html=1;align=center;" vertex="1" parent="1">
          <mxGeometry x="632" y="-361" width="50" height="40" as="geometry" />
        </mxCell>
        <mxCell id="iyzvEa8N_OB9cEJZf_HY-12" value="&lt;span style=&quot;color: rgba(0, 0, 0, 0.85); font-family: &amp;quot;YS Text&amp;quot;, sans-serif; font-size: 10px; font-style: normal; font-variant-ligatures: normal; font-variant-caps: normal; font-weight: 400; letter-spacing: normal; orphans: 2; text-indent: 0px; text-transform: none; white-space: pre-line; widows: 2; word-spacing: 0px; -webkit-text-stroke-width: 0px; background-color: rgb(255, 255, 255); text-decoration-thickness: initial; text-decoration-style: initial; text-decoration-color: initial; float: none; display: inline !important;&quot;&gt;Ввести данные карты и нажать &quot;Привязать&quot;&lt;/span&gt;" style="text;whiteSpace=wrap;html=1;align=center;" vertex="1" parent="1">
          <mxGeometry x="453" y="-351" width="110" height="40" as="geometry" />
        </mxCell>
        <mxCell id="iyzvEa8N_OB9cEJZf_HY-13" value="&lt;span style=&quot;color: rgba(0, 0, 0, 0.85); font-family: &amp;quot;YS Text&amp;quot;, sans-serif; font-size: 10px; font-style: normal; font-variant-ligatures: normal; font-variant-caps: normal; font-weight: 400; letter-spacing: normal; orphans: 2; text-indent: 0px; text-transform: none; white-space: pre-line; widows: 2; word-spacing: 0px; -webkit-text-stroke-width: 0px; background-color: rgb(255, 255, 255); text-decoration-thickness: initial; text-decoration-style: initial; text-decoration-color: initial; float: none; display: inline !important;&quot;&gt;Кликнуть на поле &quot;Способ оплаты&quot;&lt;/span&gt;" style="text;whiteSpace=wrap;html=1;align=center;" vertex="1" parent="1">
          <mxGeometry x="584" y="-500" width="90" height="40" as="geometry" />
        </mxCell>
        <mxCell id="iyzvEa8N_OB9cEJZf_HY-14" value="&lt;span style=&quot;color: rgba(0, 0, 0, 0.85); font-family: &amp;quot;YS Text&amp;quot;, sans-serif; font-size: 10px; font-style: normal; font-variant-ligatures: normal; font-variant-caps: normal; font-weight: 400; letter-spacing: normal; orphans: 2; text-align: left; text-indent: 0px; text-transform: none; white-space: pre-line; widows: 2; word-spacing: 0px; -webkit-text-stroke-width: 0px; background-color: rgb(255, 255, 255); text-decoration-thickness: initial; text-decoration-style: initial; text-decoration-color: initial; display: inline !important; float: none;&quot;&gt;Нажать на &quot;Крестик&quot;&lt;/span&gt;" style="text;whiteSpace=wrap;html=1;" vertex="1" parent="1">
          <mxGeometry x="541" y="-578" width="98" height="30" as="geometry" />
        </mxCell>
        <mxCell id="iyzvEa8N_OB9cEJZf_HY-15" value="&lt;span style=&quot;color: rgba(0, 0, 0, 0.85); font-family: &amp;quot;YS Text&amp;quot;, sans-serif; font-size: 10px; font-style: normal; font-variant-ligatures: normal; font-variant-caps: normal; font-weight: 400; letter-spacing: normal; orphans: 2; text-indent: 0px; text-transform: none; white-space: pre-line; widows: 2; word-spacing: 0px; -webkit-text-stroke-width: 0px; background-color: rgb(255, 255, 255); text-decoration-thickness: initial; text-decoration-style: initial; text-decoration-color: initial; float: none; display: inline !important;&quot;&gt;Кликнуть &quot;Добавить карту&quot;&lt;/span&gt;" style="text;whiteSpace=wrap;html=1;align=center;" vertex="1" parent="1">
          <mxGeometry x="360" y="-351" width="88" height="40" as="geometry" />
        </mxCell>
        <mxCell id="iyzvEa8N_OB9cEJZf_HY-16" value="&lt;font style=&quot;font-size: 10px;&quot;&gt;Заполнить поля &quot;Откуда&quot; и &quot;Куда&quot;. Выбрать тип транспорта «Каршеринг» в режиме «Свой». Нажать кнопку &quot;Забронировать&quot;&lt;/font&gt;" style="text;whiteSpace=wrap;html=1;align=center;" vertex="1" parent="1">
          <mxGeometry x="82" y="-771" width="208" height="61" as="geometry" />
        </mxCell>
        <mxCell id="sVLx8O-Ld-qcTRqpF2X1-73" value="Окно &quot;Поездка отменена&quot;" style="rounded=0;whiteSpace=wrap;html=1;" vertex="1" parent="1">
          <mxGeometry x="-133" y="-732" width="133" height="60" as="geometry" />
        </mxCell>
        <mxCell id="iyzvEa8N_OB9cEJZf_HY-17" value="Заполнить данные карты и права и нажать кнопку &quot;Забронировать&quot;" style="text;whiteSpace=wrap;fontSize=10;" vertex="1" parent="1">
          <mxGeometry x="-165" y="-590" width="440" height="24" as="geometry" />
        </mxCell>
        <mxCell id="iyzvEa8N_OB9cEJZf_HY-18" style="edgeStyle=orthogonalEdgeStyle;rounded=0;orthogonalLoop=1;jettySize=auto;html=1;" edge="1" parent="1">
          <mxGeometry relative="1" as="geometry">
            <mxPoint x="277" y="-527" as="sourcePoint" />
            <mxPoint x="200" y="-436" as="targetPoint" />
            <Array as="points">
              <mxPoint x="277" y="-436" />
              <mxPoint x="207" y="-436" />
            </Array>
          </mxGeometry>
        </mxCell>
        <mxCell id="iyzvEa8N_OB9cEJZf_HY-19" value="Заполнить данные карты, но не заполнить права и нажать кнопку &quot;Забронировать&quot;" style="text;whiteSpace=wrap;fontSize=10;align=center;" vertex="1" parent="1">
          <mxGeometry x="122" y="-500" width="225" height="33" as="geometry" />
        </mxCell>
        <mxCell id="iyzvEa8N_OB9cEJZf_HY-20" style="edgeStyle=orthogonalEdgeStyle;rounded=0;orthogonalLoop=1;jettySize=auto;html=1;exitX=0.691;exitY=1.009;exitDx=0;exitDy=0;exitPerimeter=0;" edge="1" parent="1" source="sVLx8O-Ld-qcTRqpF2X1-35">
          <mxGeometry relative="1" as="geometry">
            <mxPoint x="345" y="-324" as="sourcePoint" />
            <mxPoint x="436" y="-233" as="targetPoint" />
            <Array as="points">
              <mxPoint x="347" y="-233" />
            </Array>
          </mxGeometry>
        </mxCell>
        <mxCell id="iyzvEa8N_OB9cEJZf_HY-21" value="Заполнить права, но не заполнить данные карты и нажать кнопку &quot;Забронировать&quot;" style="text;whiteSpace=wrap;fontSize=10;align=center;" vertex="1" parent="1">
          <mxGeometry x="268" y="-433" width="166" height="46" as="geometry" />
        </mxCell>
        <mxCell id="sVLx8O-Ld-qcTRqpF2X1-35" value="Форма бронирования" style="rounded=0;whiteSpace=wrap;html=1;" vertex="1" parent="1">
          <mxGeometry x="251" y="-630" width="139" height="110" as="geometry" />
        </mxCell>
      </root>
    </mxGraphModel>
  </diagram>
</mxfile>
